<svg width="131" height="131" viewBox="0 0 131 131" fill="none" xmlns="http://www.w3.org/2000/svg">
<rect x="65.5271" width="92.5926" height="92.6693" rx="10" transform="rotate(45 65.5271 0)" fill="url(#paint0_linear_144_1633)"/>
<g clip-path="url(#clip0_144_1633)">
<path d="M67.1227 57.8309V54.4181L62.7219 53.4404C62.5718 52.9711 62.3806 52.5212 62.1576 52.0895L64.5807 48.2814L62.1672 45.8681L58.3592 48.2911C57.9275 48.0681 57.4775 47.8771 57.0083 47.7269L56.0312 43.3267H52.6185L51.6407 47.7274C51.1715 47.8775 50.7215 48.0686 50.2898 48.2916L46.4818 45.8687L44.0683 48.282L46.4914 52.0901C46.2684 52.5218 46.0772 52.9717 45.9271 53.441L41.527 54.4181V57.8309L45.9278 58.8086C46.0779 59.2779 46.269 59.7278 46.492 60.1595L44.069 63.9676L46.4824 66.381L50.2905 63.9579C50.7222 64.1809 51.1721 64.3719 51.6414 64.5222L52.6186 68.9224H56.0314L57.0091 64.5216C57.4784 64.3714 57.9283 64.1803 58.36 63.9573L62.1681 66.3804L64.5815 63.967L62.1585 60.1589C62.3815 59.7272 62.5726 59.2773 62.7227 58.8081L67.1227 57.8309ZM54.3248 60.3905C51.9689 60.3905 50.0589 58.4805 50.0589 56.1245C50.0589 53.7685 51.9689 51.8586 54.3248 51.8586C56.6808 51.8586 58.5908 53.7685 58.5908 56.1245C58.5908 58.4805 56.6808 60.3905 54.3248 60.3905ZM72.6241 82.6315L73.6997 80.0048L70.6203 77.865C70.6527 77.4566 70.647 77.0499 70.6117 76.6478L73.677 74.4801L72.5798 71.862L68.8849 72.5274C68.6226 72.2202 68.3371 71.9307 68.0231 71.6674L68.6573 67.9719L66.0307 66.8964L63.8909 69.9758C63.4825 69.9434 63.0758 69.949 62.6736 69.9843L60.506 66.9191L57.8878 68.0162L58.5533 71.7111C58.2462 71.9734 57.9567 72.2589 57.6933 72.5729L53.9978 71.9387L52.9223 74.5654L56.0017 76.7051C55.9692 77.1136 55.9749 77.5202 56.0102 77.9224L52.945 80.0901L54.0422 82.7083L57.737 82.0428C57.9992 82.3499 58.2848 82.6394 58.5987 82.9027L57.9645 86.5982L60.5912 87.6737L62.731 84.5944C63.1394 84.6269 63.5462 84.6211 63.9482 84.5858L66.1159 87.6511L68.7341 86.5539L68.0686 82.859C68.3758 82.5973 68.6653 82.3112 68.9286 81.9973L72.6241 82.6315ZM61.966 80.5684C60.1527 79.8261 59.2841 77.7541 60.0264 75.9402C60.7687 74.1263 62.8408 73.2583 64.6547 74.0006C66.468 74.7429 67.3366 76.815 66.5943 78.6289C65.852 80.4427 63.7799 81.3113 61.966 80.5684ZM89.527 55.4369L88.622 52.6463L84.7639 53.0138C84.5171 52.6697 84.2406 52.3529 83.9443 52.0588L84.9157 48.3025L82.3021 46.9693L79.8307 49.9606C79.4188 49.8929 79.0003 49.8553 78.5765 49.8576L76.6096 46.5182L73.8192 47.4231L74.1866 51.2812C73.8425 51.5281 73.5257 51.8045 73.2316 52.1009L69.4753 51.1294L68.1421 53.743L71.1334 56.2144C71.0657 56.6262 71.0281 57.0449 71.0305 57.4686L67.6915 59.4349L68.5965 62.2254L72.4546 61.858C72.7014 62.2021 72.9773 62.5188 73.2742 62.8129L72.3027 66.5692L74.9163 67.9025L77.3877 64.9112C77.7995 64.9789 78.2182 65.0164 78.6419 65.0141L80.6089 68.3535L83.3993 67.4485L83.0319 63.5904C83.376 63.3436 83.6927 63.0671 83.9868 62.7708L87.7431 63.7423L89.0764 61.1286L86.085 58.6572C86.1528 58.2454 86.1902 57.8268 86.188 57.403L89.527 55.4369ZM79.7409 60.924C77.8143 61.5491 75.7456 60.4934 75.1211 58.567C74.496 56.6404 75.5517 54.5717 77.4783 53.9472C79.4047 53.3221 81.4735 54.3778 82.0979 56.3043C82.7224 58.2308 81.6673 60.2995 79.7409 60.924Z" fill="white"/>
</g>
<defs>
<linearGradient id="paint0_linear_144_1633" x1="111.823" y1="-2.76176e-06" x2="111.823" y2="92.6693" gradientUnits="userSpaceOnUse">
<stop stop-color="#FF0010"/>
<stop offset="1" stop-color="#85020A"/>
</linearGradient>
<clipPath id="clip0_144_1633">
<rect width="48" height="48" fill="white" transform="translate(41.527 41.5)"/>
</clipPath>
</defs>
</svg>
